<svg width="123" height="30" viewBox="0 0 123 30" fill="none" xmlns="http://www.w3.org/2000/svg">
<path d="M12.75 5.1875V0H16.6875V5.1875H12.75ZM12.75 29.4375V24.25H16.6875V29.4375H12.75ZM24.25 16.6875V12.75H29.4375V16.6875H24.25ZM0 16.6875V12.75H5.1875V16.6875H0ZM23.25 8.96875L20.4688 6.1875L23.6875 2.9375L26.5 5.75L23.25 8.96875ZM5.75 26.5L2.9375 23.6875L6.1875 20.4688L8.96875 23.25L5.75 26.5ZM23.6875 26.5L20.4688 23.25L23.25 20.4688L26.5 23.6875L23.6875 26.5ZM6.1875 8.96875L2.9375 5.75L5.75 2.9375L8.96875 6.1875L6.1875 8.96875ZM14.7188 22.2188C12.6354 22.2188 10.8646 21.4896 9.40625 20.0312C7.94792 18.5729 7.21875 16.8021 7.21875 14.7188C7.21875 12.6354 7.94792 10.8646 9.40625 9.40625C10.8646 7.94792 12.6354 7.21875 14.7188 7.21875C16.8021 7.21875 18.5729 7.94792 20.0312 9.40625C21.4896 10.8646 22.2188 12.6354 22.2188 14.7188C22.2188 16.8021 21.4896 18.5729 20.0312 20.0312C18.5729 21.4896 16.8021 22.2188 14.7188 22.2188ZM14.7245 18.2812C15.7207 18.2812 16.5625 17.9356 17.25 17.2442C17.9375 16.5529 18.2812 15.7091 18.2812 14.713C18.2812 13.7168 17.9356 12.875 17.2442 12.1875C16.5529 11.5 15.7091 11.1562 14.713 11.1562C13.7168 11.1562 12.875 11.5019 12.1875 12.1933C11.5 12.8846 11.1562 13.7284 11.1562 14.7245C11.1562 15.7207 11.5019 16.5625 12.1933 17.25C12.8846 17.9375 13.7284 18.2812 14.7245 18.2812Z" fill="#2563EB"/>
<path d="M45.8575 22.7188L41.6375 8.31875H44.4975L47.1975 18.2188L49.8975 8.33875L52.7575 8.31875L55.4575 18.2188L58.1575 8.31875H61.0175L56.7975 22.7188H54.1175L51.3275 12.9987L48.5375 22.7188H45.8575ZM65.9375 23.0187C64.8308 23.0187 63.8558 22.7804 63.0125 22.3038C62.1692 21.8271 61.5092 21.1704 61.0325 20.3338C60.5558 19.4971 60.3175 18.5387 60.3175 17.4587C60.3175 16.2787 60.5508 15.2521 61.0175 14.3788C61.4842 13.5054 62.1275 12.8271 62.9475 12.3437C63.7675 11.8604 64.7108 11.6187 65.7775 11.6187C66.9108 11.6187 67.8742 11.8854 68.6675 12.4188C69.4608 12.9521 70.0475 13.7021 70.4275 14.6687C70.8075 15.6354 70.9408 16.7721 70.8275 18.0788H68.1375V17.0787C68.1375 15.9788 67.9625 15.1871 67.6125 14.7037C67.2625 14.2204 66.6908 13.9787 65.8975 13.9787C64.9708 13.9787 64.2892 14.2604 63.8525 14.8238C63.4158 15.3871 63.1975 16.2188 63.1975 17.3187C63.1975 18.3254 63.4158 19.1038 63.8525 19.6538C64.2892 20.2037 64.9308 20.4787 65.7775 20.4787C66.3108 20.4787 66.7675 20.3621 67.1475 20.1287C67.5275 19.8954 67.8175 19.5587 68.0175 19.1187L70.7375 19.8987C70.3308 20.8854 69.6892 21.6521 68.8125 22.1987C67.9358 22.7454 66.9775 23.0187 65.9375 23.0187ZM62.3575 18.0788V16.0587H69.5175V18.0788H62.3575ZM75.3775 23.0187C74.6042 23.0187 73.9492 22.8704 73.4125 22.5738C72.8758 22.2771 72.4692 21.8804 72.1925 21.3838C71.9158 20.8871 71.7775 20.3387 71.7775 19.7387C71.7775 19.2388 71.8542 18.7821 72.0075 18.3687C72.1608 17.9554 72.4092 17.5904 72.7525 17.2738C73.0958 16.9571 73.5575 16.6921 74.1375 16.4787C74.5375 16.3321 75.0142 16.2021 75.5675 16.0888C76.1208 15.9754 76.7475 15.8671 77.4475 15.7637C78.1475 15.6604 78.9175 15.5454 79.7575 15.4187L78.7775 15.9588C78.7775 15.3187 78.6242 14.8487 78.3175 14.5488C78.0108 14.2488 77.4975 14.0988 76.7775 14.0988C76.3775 14.0988 75.9608 14.1954 75.5275 14.3887C75.0942 14.5821 74.7908 14.9254 74.6175 15.4187L72.1575 14.6387C72.4308 13.7454 72.9442 13.0188 73.6975 12.4587C74.4508 11.8987 75.4775 11.6187 76.7775 11.6187C77.7308 11.6187 78.5775 11.7654 79.3175 12.0588C80.0575 12.3521 80.6175 12.8588 80.9975 13.5788C81.2108 13.9788 81.3375 14.3788 81.3775 14.7787C81.4175 15.1787 81.4375 15.6254 81.4375 16.1187V22.7188H79.0575V20.4987L79.3975 20.9588C78.8708 21.6854 78.3025 22.2104 77.6925 22.5337C77.0825 22.8571 76.3108 23.0187 75.3775 23.0187ZM75.9575 20.8787C76.4575 20.8787 76.8792 20.7904 77.2225 20.6137C77.5658 20.4371 77.8392 20.2354 78.0425 20.0088C78.2458 19.7821 78.3842 19.5921 78.4575 19.4387C78.5975 19.1454 78.6792 18.8037 78.7025 18.4137C78.7258 18.0238 78.7375 17.6988 78.7375 17.4388L79.5375 17.6387C78.7308 17.7721 78.0775 17.8837 77.5775 17.9737C77.0775 18.0638 76.6742 18.1454 76.3675 18.2188C76.0608 18.2921 75.7908 18.3721 75.5575 18.4588C75.2908 18.5654 75.0758 18.6804 74.9125 18.8038C74.7492 18.9271 74.6292 19.0621 74.5525 19.2087C74.4758 19.3554 74.4375 19.5188 74.4375 19.6988C74.4375 19.9454 74.4992 20.1571 74.6225 20.3338C74.7458 20.5104 74.9208 20.6454 75.1475 20.7388C75.3742 20.8321 75.6442 20.8787 75.9575 20.8787ZM90.0175 22.7188C89.2708 22.8587 88.5392 22.9204 87.8225 22.9038C87.1058 22.8871 86.4658 22.7604 85.9025 22.5237C85.3392 22.2871 84.9108 21.9054 84.6175 21.3787C84.3508 20.8854 84.2108 20.3837 84.1975 19.8737C84.1842 19.3637 84.1775 18.7854 84.1775 18.1387V8.91875H86.8975V17.9787C86.8975 18.3987 86.9025 18.7771 86.9125 19.1137C86.9225 19.4504 86.9908 19.7187 87.1175 19.9187C87.3575 20.2987 87.7408 20.5054 88.2675 20.5388C88.7942 20.5721 89.3775 20.5454 90.0175 20.4588V22.7188ZM82.3375 14.0187V11.9187H90.0175V14.0187H82.3375ZM99.2775 22.7188V17.6188C99.2775 17.3721 99.2642 17.0571 99.2375 16.6738C99.2108 16.2904 99.1275 15.9054 98.9875 15.5187C98.8475 15.1321 98.6192 14.8088 98.3025 14.5488C97.9858 14.2888 97.5375 14.1587 96.9575 14.1587C96.7242 14.1587 96.4742 14.1954 96.2075 14.2687C95.9408 14.3421 95.6908 14.4838 95.4575 14.6937C95.2242 14.9037 95.0325 15.2121 94.8825 15.6188C94.7325 16.0254 94.6575 16.5654 94.6575 17.2388L93.0975 16.4988C93.0975 15.6454 93.2708 14.8454 93.6175 14.0988C93.9642 13.3521 94.4858 12.7488 95.1825 12.2888C95.8792 11.8288 96.7575 11.5988 97.8175 11.5988C98.6642 11.5988 99.3542 11.7421 99.8875 12.0287C100.421 12.3154 100.836 12.6787 101.133 13.1188C101.429 13.5588 101.641 14.0171 101.768 14.4938C101.894 14.9704 101.971 15.4054 101.998 15.7988C102.024 16.1921 102.038 16.4787 102.038 16.6587V22.7188H99.2775ZM91.8975 22.7188V8.31875H94.3175V15.7188H94.6575V22.7188H91.8975ZM109.157 23.0187C108.051 23.0187 107.076 22.7804 106.232 22.3038C105.389 21.8271 104.729 21.1704 104.252 20.3338C103.776 19.4971 103.537 18.5387 103.537 17.4587C103.537 16.2787 103.771 15.2521 104.237 14.3788C104.704 13.5054 105.347 12.8271 106.167 12.3437C106.987 11.8604 107.931 11.6187 108.997 11.6187C110.131 11.6187 111.094 11.8854 111.887 12.4188C112.681 12.9521 113.267 13.7021 113.647 14.6687C114.027 15.6354 114.161 16.7721 114.047 18.0788H111.357V17.0787C111.357 15.9788 111.182 15.1871 110.832 14.7037C110.482 14.2204 109.911 13.9787 109.117 13.9787C108.191 13.9787 107.509 14.2604 107.072 14.8238C106.636 15.3871 106.417 16.2188 106.417 17.3187C106.417 18.3254 106.636 19.1038 107.072 19.6538C107.509 20.2037 108.151 20.4787 108.997 20.4787C109.531 20.4787 109.987 20.3621 110.367 20.1287C110.747 19.8954 111.037 19.5587 111.237 19.1187L113.957 19.8987C113.551 20.8854 112.909 21.6521 112.032 22.1987C111.156 22.7454 110.197 23.0187 109.157 23.0187ZM105.577 18.0788V16.0587H112.737V18.0788H105.577ZM115.797 22.7188V11.9187H118.197V14.5588L117.937 14.2187C118.077 13.8454 118.264 13.5054 118.497 13.1987C118.731 12.8921 119.017 12.6387 119.357 12.4388C119.617 12.2787 119.901 12.1537 120.207 12.0637C120.514 11.9737 120.831 11.9171 121.157 11.8938C121.484 11.8704 121.811 11.8788 122.137 11.9187V14.4588C121.837 14.3654 121.489 14.3338 121.092 14.3637C120.696 14.3938 120.337 14.4854 120.017 14.6387C119.697 14.7854 119.427 14.9804 119.207 15.2238C118.987 15.4671 118.821 15.7537 118.707 16.0837C118.594 16.4137 118.537 16.7854 118.537 17.1988V22.7188H115.797Z" fill="#1E293B"/>
</svg>
