<svg width="134" height="102" viewBox="0 0 134 102" fill="none" xmlns="http://www.w3.org/2000/svg">
<g filter="url(#filter0_d_1_405)">
<path d="M37.3333 93.3333C29.2444 93.3333 22.3333 90.5333 16.6 84.9333C10.8667 79.3333 8 72.4889 8 64.4C8 57.4667 10.0889 51.2889 14.2667 45.8667C18.4444 40.4444 23.9111 36.9778 30.6667 35.4667C32.8889 27.2889 37.3333 20.6667 44 15.6C50.6667 10.5333 58.2222 8 66.6667 8C77.0667 8 85.8889 11.6222 93.1333 18.8667C100.378 26.1111 104 34.9333 104 45.3333C110.133 46.0444 115.222 48.6889 119.267 53.2667C123.311 57.8444 125.333 63.2 125.333 69.3333C125.333 76 123 81.6667 118.333 86.3333C113.667 91 108 93.3333 101.333 93.3333H37.3333ZM37.3333 82.6667H101.333C105.067 82.6667 108.222 81.3778 110.8 78.8C113.378 76.2222 114.667 73.0667 114.667 69.3333C114.667 65.6 113.378 62.4444 110.8 59.8667C108.222 57.2889 105.067 56 101.333 56H93.3333V45.3333C93.3333 37.9556 90.7333 31.6667 85.5333 26.4667C80.3333 21.2667 74.0444 18.6667 66.6667 18.6667C59.2889 18.6667 53 21.2667 47.8 26.4667C42.6 31.6667 40 37.9556 40 45.3333H37.3333C32.1778 45.3333 27.7778 47.1556 24.1333 50.8C20.4889 54.4444 18.6667 58.8444 18.6667 64C18.6667 69.1556 20.4889 73.5555 24.1333 77.2C27.7778 80.8444 32.1778 82.6667 37.3333 82.6667Z" fill="#007BFF"/>
</g>
<defs>
<filter id="filter0_d_1_405" x="0" y="0" width="133.333" height="101.333" filterUnits="userSpaceOnUse" color-interpolation-filters="sRGB">
<feFlood flood-opacity="0" result="BackgroundImageFix"/>
<feColorMatrix in="SourceAlpha" type="matrix" values="0 0 0 0 0 0 0 0 0 0 0 0 0 0 0 0 0 0 127 0" result="hardAlpha"/>
<feOffset/>
<feGaussianBlur stdDeviation="4"/>
<feComposite in2="hardAlpha" operator="out"/>
<feColorMatrix type="matrix" values="0 0 0 0 0 0 0 0 0 0.482353 0 0 0 0 1 0 0 0 0.4 0"/>
<feBlend mode="normal" in2="BackgroundImageFix" result="effect1_dropShadow_1_405"/>
<feBlend mode="normal" in="SourceGraphic" in2="effect1_dropShadow_1_405" result="shape"/>
</filter>
</defs>
</svg>
